<svg width="60" height="75" viewBox="0 0 60 75" fill="none" xmlns="http://www.w3.org/2000/svg">
    <path
        d="M58.9062 15.3809L43.6094 1.02539C42.9063 0.366211 41.9531 0 40.9531 0H40V18.75H60V17.8564C60 16.9336 59.6094 16.04 58.9062 15.3809ZM20.0625 49.2188C17.2656 49.2188 15 50.9912 15 53.1738C15 55.3711 17.2813 57.1289 20.0781 57.1289C22.875 57.1289 25.1406 55.3564 25.1406 53.1738C25.1406 50.9912 22.8594 49.2188 20.0625 49.2188ZM35 19.9219V0H25.0625V4.6875H20.0625V0H3.75C1.67187 0 0 1.56738 0 3.51562V71.4844C0 73.4326 1.67187 75 3.75 75H56.25C58.3281 75 60 73.4326 60 71.4844V23.4375H38.75C36.6875 23.4375 35 21.8555 35 19.9219ZM14.9844 4.6875H19.9844V9.375H14.9844V4.6875ZM20.0312 60.9375C14.8437 60.9375 10.9688 56.4844 12 51.7236L15.0625 37.5V32.8125H20.0625V28.125H15.0625V23.4375H20.0625V18.75H15.0625V14.0625H20.0625V9.375H25.0625V14.0625H20.0625V18.75H25.0625V23.4375H20.0625V28.125H25.0625V32.8125H20.0625V37.5H23.5156C24.4062 37.5 25.1875 38.1006 25.3594 38.9209L28.0625 51.7676C29.0625 56.5137 25.1875 60.9375 20.0312 60.9375Z"
        fill="#E3CC55" />
</svg>
    