<svg width="60" height="76" viewBox="0 0 60 76" fill="none" xmlns="http://www.w3.org/2000/svg">
<path d="M35 20.1875V0H3.75C1.67187 0 0 1.58828 0 3.5625V72.4375C0 74.4117 1.67187 76 3.75 76H56.25C58.3281 76 60 74.4117 60 72.4375V23.75H38.75C36.6875 23.75 35 22.1469 35 20.1875ZM43.9219 38H47.6562C48.8594 38 49.75 39.0539 49.4844 40.182L43.5469 65.1195C43.3594 65.9359 42.5937 66.5 41.7188 66.5H35.7812C34.9219 66.5 34.1719 65.9359 33.9687 65.1492C29.9375 49.7859 30.7188 53.0961 29.9688 48.7469H29.8906C29.7188 50.8695 29.5156 51.3297 25.8906 65.1492C25.6875 65.9359 24.9375 66.5 24.0781 66.5H18.2812C17.4063 66.5 16.6406 65.9211 16.4531 65.1047L10.5469 40.1672C10.2812 39.0539 11.1719 38 12.375 38H16.2031C17.0937 38 17.875 38.5938 18.0469 39.4398C20.4844 51.018 21.1875 55.6937 21.3281 57.5789C21.5781 56.0648 22.4687 52.725 25.9219 39.3656C26.125 38.5641 26.875 38.0148 27.75 38.0148H32.2969C33.1719 38.0148 33.9219 38.5789 34.125 39.3805C37.875 54.2836 38.625 57.7867 38.75 58.5883C38.7187 56.9258 38.3438 55.9461 42.125 39.4102C42.2813 38.5789 43.0469 38 43.9219 38ZM60 18.0945V19H40V0H40.9531C41.9531 0 42.9063 0.371094 43.6094 1.03906L58.9062 15.5859C59.6094 16.2539 60 17.1594 60 18.0945Z" fill="#5D5BD2"/>
</svg>
