<svg width="60" height="76" viewBox="0 0 60 76" fill="none" xmlns="http://www.w3.org/2000/svg">
    <path
        d="M35 20.1875V0H3.75C1.67188 0 0 1.58828 0 3.5625V72.4375C0 74.4117 1.67188 76 3.75 76H56.25C58.3281 76 60 74.4117 60 72.4375V23.75H38.75C36.6875 23.75 35 22.1469 35 20.1875ZM44.3906 35.9961L35 49.875L44.3906 63.7539C45.1875 64.9414 44.2969 66.5 42.8125 66.5H37.3594C36.6719 66.5 36.0313 66.1437 35.7031 65.5648C32.6406 60.1914 30 55.3672 30 55.3672C29 57.5641 28.4375 58.3359 24.2812 65.5797C23.9531 66.1586 23.3281 66.5148 22.6406 66.5148H17.1875C15.7031 66.5148 14.8125 64.9562 15.6094 63.7687L25.0313 49.8898L15.6094 36.0109C14.7969 34.8234 15.7031 33.2648 17.1875 33.2648H22.625C23.3125 33.2648 23.9531 33.6211 24.2812 34.2C28.3594 41.4437 27.4063 39.1875 30 44.368C30 44.368 30.9531 42.6312 35.7188 34.2C36.0469 33.6211 36.6875 33.2648 37.375 33.2648H42.8125C44.2969 33.25 45.1875 34.8086 44.3906 35.9961ZM60 18.0945V19H40V0H40.9531C41.9531 0 42.9063 0.371094 43.6094 1.03906L58.9063 15.5859C59.6094 16.2539 60 17.1594 60 18.0945Z"
        fill="#58BC5C" />
</svg>
    