<svg width="60" height="75" viewBox="0 0 60 75" fill="none" xmlns="http://www.w3.org/2000/svg">
    <path
        d="M60 17.8625V18.75H40V0H40.9467C41.9412 4.87494e-06 42.895 0.370375 43.5983 1.02964L58.9016 15.3765C59.6048 16.0358 60 16.93 60 17.8625ZM38.75 23.4375C36.6875 23.4375 35 21.8555 35 19.9219V0H3.75C1.67891 0 0 1.57397 0 3.51562V71.4844C0 73.426 1.67891 75 3.75 75H56.25C58.3211 75 60 73.426 60 71.4844V23.4375H38.75ZM17.5852 25.7812C21.7273 25.7812 25.0852 28.9292 25.0852 32.8125C25.0852 36.6958 21.7273 39.8438 17.5852 39.8438C13.443 39.8438 10.0852 36.6958 10.0852 32.8125C10.0852 28.9292 13.4431 25.7812 17.5852 25.7812ZM50.0852 60.9375H10.0852L10.1609 53.8352L16.3352 48.0469C17.0673 47.3604 18.1787 47.4315 18.9109 48.1179L25.0852 53.9062L41.2594 38.7429C41.9916 38.0565 43.1788 38.0565 43.9111 38.7429L50.0852 44.5312V60.9375Z"
        fill="#5FB2CC" />
</svg>
    