<svg width="30" height="30" viewBox="0 0 30 30" fill="none" xmlns="http://www.w3.org/2000/svg">
    <path
        d="M15.2251 0.00953215C13.245 -0.0612978 11.2709 0.26319 9.42143 0.963476C7.57196 1.66376 5.88539 2.72537 4.46318 4.08445C3.04097 5.44352 1.91252 7.07196 1.1457 8.87182C0.378878 10.6717 -0.0104573 12.6057 0.00111376 14.5577C-0.0244014 16.5842 0.388745 18.5928 1.21303 20.4496C2.03731 22.3065 3.2538 23.969 4.78145 25.3263C4.90273 25.4327 5.00148 25.5617 5.07202 25.7059C5.14256 25.85 5.1835 26.0064 5.19249 26.1662V28.8359C5.20084 29.0327 5.25763 29.2245 5.35798 29.3949C5.45832 29.5652 5.59921 29.709 5.76851 29.8138C5.9378 29.9186 6.13042 29.9813 6.32977 29.9964C6.52911 30.0115 6.72921 29.9787 6.9128 29.9007L9.9576 28.5959C10.2176 28.4991 10.5045 28.4991 10.7645 28.5959C12.2038 28.9786 13.6886 29.1703 15.1794 29.1658C19.104 29.1718 22.8703 27.6416 25.6497 24.9119C28.4291 22.1822 29.9939 18.4765 30 14.6102C30.006 10.7438 28.4528 7.03343 25.682 4.29528C22.9112 1.55713 19.1497 0.0154988 15.2251 0.00953215ZM24.3595 11.1981L19.8989 18.1872C19.7306 18.4503 19.5089 18.6763 19.2475 18.8507C18.9862 19.0251 18.691 19.1443 18.3806 19.2007C18.0701 19.2571 17.7512 19.2494 17.4439 19.1782C17.1366 19.1071 16.8477 18.9739 16.5953 18.7871L13.0328 16.1625C12.8747 16.0456 12.6824 15.9825 12.4848 15.9825C12.2871 15.9825 12.0948 16.0456 11.9367 16.1625L7.12594 19.762C6.99196 19.8638 6.8257 19.9155 6.65667 19.908C6.48765 19.9005 6.3268 19.8342 6.20268 19.7209C6.07856 19.6076 5.99921 19.4547 5.97871 19.2892C5.95821 19.1238 5.99789 18.9565 6.09071 18.8171L10.5513 11.828C10.7196 11.5649 10.9413 11.339 11.2027 11.1645C11.464 10.9901 11.7592 10.8709 12.0696 10.8146C12.3801 10.7582 12.699 10.7658 13.0063 10.837C13.3136 10.9082 13.6025 11.0414 13.8549 11.2281L17.4174 13.8528C17.5755 13.9696 17.7678 14.0327 17.9654 14.0327C18.1631 14.0327 18.3554 13.9696 18.5135 13.8528L23.3243 10.2532C23.4582 10.1514 23.6245 10.0997 23.7935 10.1072C23.9626 10.1148 24.1234 10.181 24.2475 10.2943C24.3716 10.4076 24.451 10.5606 24.4715 10.726C24.492 10.8915 24.4523 11.0587 24.3595 11.1981Z"
        fill="#FFFFFF" />
</svg>
    