<svg width="60" height="76" viewBox="0 0 60 76" fill="none" xmlns="http://www.w3.org/2000/svg">
    <path
        d="M28.4219 38.0148C27.6406 35.6398 27.6562 31.0531 28.1094 31.0531C29.4219 31.0531 29.2969 36.5305 28.4219 38.0148ZM28.1562 45.0211C26.9531 48.0195 25.4531 51.4484 23.7188 54.3281C26.5781 53.2891 29.8125 51.775 33.5469 51.0773C31.5625 49.6523 29.6562 47.6039 28.1562 45.0211ZM13.4531 63.5461C13.4531 63.6648 15.5156 62.7445 18.9062 57.5789C17.8594 58.5141 14.3594 61.2156 13.4531 63.5461ZM38.75 23.75H60V72.4375C60 74.4117 58.3281 76 56.25 76H3.75C1.67187 76 0 74.4117 0 72.4375V3.5625C0 1.58828 1.67187 0 3.75 0H35V20.1875C35 22.1469 36.6875 23.75 38.75 23.75ZM37.5 49.2516C34.375 47.4406 32.2969 44.9469 30.8281 41.2656C31.5313 38.5195 32.6406 34.3484 31.7969 31.7359C31.0625 27.3719 25.1719 27.8023 24.3281 30.7266C23.5469 33.443 24.2656 37.2727 25.5938 42.1562C23.7813 46.2531 21.1094 51.7453 19.2188 54.8922C19.2031 54.8922 19.2031 54.907 19.1875 54.907C14.9531 56.9703 7.6875 61.5125 10.6719 65.0008C11.5469 66.025 13.1719 66.4852 14.0313 66.4852C16.8281 66.4852 19.6094 63.8133 23.5781 57.3117C27.6094 56.05 32.0312 54.4766 35.9219 53.868C39.3125 55.6195 43.2812 56.7625 45.9219 56.7625C50.4844 56.7625 50.7969 52.0125 49 50.3203C46.8281 48.3016 40.5156 48.8805 37.5 49.2516ZM58.9062 15.5859L43.5938 1.03906C42.8906 0.371094 41.9375 0 40.9375 0H40V19H60V18.0945C60 17.1594 59.6094 16.2539 58.9062 15.5859ZM47.3281 53.482C47.9687 53.0812 46.9375 51.7156 40.6406 52.1461C46.4375 54.4914 47.3281 53.482 47.3281 53.482Z"
        fill="#FC4D4D" />
</svg>
    